#!OML:ASF X:\für Bonn\!DataBase\2005_08_12_Daniel\c3d\Daniel.ASF
:FULLY-SPECIFIED
:DEGREES
61
root 7.94231 16.2432 -0.273419 159.855 -103.288 -166.518
lowerback 7.45362 -10.4189 -1.17997
upperback 0.0565658 -14.1351 -2.75288
thorax -4.45079 -7.02274 -0.594853
lowerneck 1.34729 7.74325 2.41509
upperneck 11.4806 10.6807 -6.44967
head 4.09983 5.00806 -2.22584
rclavicle 1.16972e-013 2.80286e-014
rhumerus -50.2529 -20.0194 -67.7365
rradius 20.6303
rwrist 33.6823
rhand -12.9663 9.07603
rfingers 7.12502
rthumb 13.1257 -20.4909
lclavicle 1.16972e-013 2.80286e-014
lhumerus -38.6253 25.3763 74.0257
lradius 33.132
lwrist -26.1294
lhand -15.4068 -8.87183
lfingers 7.12502
lthumb 10.7724 20.8319
rfemur -35.3889 -3.38574 16.012
rtibia 52.8174
rfoot -11.1434 -1.36378
rtoes -5.74383
lfemur -1.6425 -4.99631 -19.971
ltibia 74.8339
lfoot 3.61232 -5.10591
ltoes -13.1484
62
root 7.83863 16.2669 -0.283803 159.094 -102.866 -166.213
lowerback 7.93166 -10.2404 -0.999014
upperback 0.139847 -13.8975 -2.84418
thorax -4.68851 -6.90458 -0.717296
lowerneck 1.50296 7.73553 2.32838
upperneck 11.5688 10.669 -6.46539
head 4.09662 4.99511 -2.22229
rclavicle -5.0951e-014 1.88845e-015
rhumerus -48.9697 -18.5255 -69.5473
rradius 21.251
rwrist 32.6493
rhand -13.7092 9.4029
rfingers 7.12502
rthumb 12.4095 -20.2087
lclavicle -5.0951e-014 1.88845e-015
lhumerus -39.3757 26.1758 72.9651
lradius 32.198
lwrist -25.9152
lhand -15.4804 -8.57192
lfingers 7.12502
lthumb 10.7014 21.1355
rfemur -34.3944 -2.92153 16.2098
rtibia 52.637
rfoot -11.5531 -1.28603
rtoes -5.4563
lfemur -4.56756 -4.45392 -19.8514
ltibia 79.4737
lfoot 8.19952 -4.62755
ltoes -13.6063
63
root 7.7372 16.2937 -0.293627 158.02 -102.429 -165.648
lowerback 8.41331 -10.0259 -0.845818
upperback 0.271163 -13.6149 -2.97912
thorax -4.87925 -6.7659 -0.884564
lowerneck 1.72111 7.7163 2.19539
upperneck 11.6146 10.6345 -6.43284
head 4.05805 4.97321 -2.19801
rclavicle 6.5512e-014 2.72335e-014
rhumerus -47.722 -17.1455 -71.2055
rradius 21.8307
rwrist 31.9338
rhand -14.3858 9.79465
rfingers 7.12502
rthumb 11.7571 -19.8554
lclavicle 6.5512e-014 2.72335e-014
lhumerus -39.965 26.8914 71.8907
lradius 31.2496
lwrist -25.5699
lhand -15.3673 -8.35435
lfingers 7.12502
lthumb 10.8105 21.3474
rfemur -33.3028 -2.40429 16.371
rtibia 52.3872
rfoot -11.9148 -1.26664
rtoes -5.12073
lfemur -7.5534 -3.83174 -19.7641
ltibia 84.0664
lfoot 12.395 -4.37927
ltoes -13.359
64
root 7.63913 16.3233 -0.303879 156.72 -101.983 -164.922
lowerback 8.97498 -9.79732 -0.742404
upperback 0.418333 -13.3191 -3.1133
thorax -5.08313 -6.61944 -1.02086
lowerneck 1.99569 7.70116 2.0384
upperneck 11.6369 10.6042 -6.42289
head 4.00093 4.95253 -2.17946
rclavicle 7.83833e-014 2.46493e-014
rhumerus -46.4865 -15.7817 -72.7049
rradius 22.3409
rwrist 31.5396
rhand -15.0372 10.2708
rfingers 7.12502
rthumb 11.1289 -19.4141
lclavicle 7.83833e-014 2.46493e-014
lhumerus -40.5507 27.5593 70.8423
lradius 30.4919
lwrist -25.0253
lhand -15.0159 -8.1648
lfingers 7.12502
lthumb 11.1494 21.519
rfemur -32.0971 -1.8615 16.5136
rtibia 52.0454
rfoot -12.2121 -1.26248
rtoes -4.70232
lfemur -10.5372 -3.13296 -19.6684
ltibia 88.5663
lfoot 16.2594 -4.40853
ltoes -13.3118
65
root 7.54313 16.3564 -0.313559 155.094 -101.53 -163.943
lowerback 9.58981 -9.53265 -0.655857
upperback 0.599957 -12.98 -3.28594
thorax -5.28184 -6.45259 -1.19371
lowerneck 2.3108 7.66437 1.82199
upperneck 11.6357 10.535 -6.3327
head 3.91578 4.91463 -2.12674
rclavicle -1.32068e-014 -1.49089e-014
rhumerus -45.3166 -14.6464 -73.9859
rradius 22.8145
rwrist 31.5071
rhand -15.5854 10.7736
rfingers 7.12502
rthumb 10.6001 -18.9391
lclavicle -1.32068e-014 -1.49089e-014
lhumerus -41.2253 27.9758 69.8789
lradius 30.133
lwrist -24.2026
lhand -14.5222 -7.97742
lfingers 7.12502
lthumb 11.6256 21.6801
rfemur -30.7573 -1.29299 16.6337
rtibia 51.6191
rfoot -12.4923 -1.27196
rtoes -4.27896
lfemur -13.5572 -2.34493 -19.5779
ltibia 92.9541
lfoot 19.6509 -4.75937
ltoes -13.6541
